<svg width="24" height="25" viewBox="0 0 24 25" fill="none" xmlns="http://www.w3.org/2000/svg">
<g clip-path="url(#clip0_1774_495)">
<path d="M11.9999 23.913C11.8801 23.913 11.7603 23.883 11.6529 23.823C11.5363 23.7581 8.76589 22.2013 5.9557 19.8565C4.29031 18.4668 2.96041 17.0882 2.00394 15.7593C0.766582 14.0396 0.144203 12.3857 0.153921 10.8432C0.165489 9.04825 0.829977 7.36029 2.02522 6.09007C3.24037 4.79836 4.86179 4.08691 6.59103 4.08691C8.80754 4.08691 10.8339 5.28818 11.9999 7.19105C13.166 5.28818 15.1928 4.08691 17.4089 4.08691C19.0428 4.08691 20.6013 4.72852 21.7984 5.89397C23.1116 7.17269 23.858 8.97975 23.846 10.8513C23.8358 12.391 23.2018 14.0427 21.9613 15.7598C21.002 17.0882 19.674 18.4659 18.015 19.8556C15.215 22.2004 12.4645 23.7567 12.3489 23.8221C12.241 23.8826 12.1203 23.913 11.9999 23.913Z" fill="#222222"/>
</g>
<defs>
<clipPath id="clip0_1774_495">
<rect width="24" height="24" fill="white" transform="translate(0 0.5)"/>
</clipPath>
</defs>
</svg>
