<svg width="21" height="21" viewBox="0 0 21 21" fill="none" xmlns="http://www.w3.org/2000/svg">
<path d="M18.7499 9.82179C18.6702 9.80886 18.5897 9.8029 18.509 9.80395H4.77961L5.07899 9.6647C5.37161 9.5262 5.63783 9.3377 5.86571 9.10773L9.71578 5.25766C10.2228 4.77361 10.308 3.99494 9.91769 3.41269C9.46336 2.79223 8.59209 2.65751 7.97159 3.11183C7.92146 3.14856 7.87381 3.18859 7.82904 3.23167L0.866881 10.1938C0.322789 10.7373 0.32231 11.6189 0.865793 12.163C0.866141 12.1634 0.866533 12.1638 0.866881 12.1641L7.82904 19.1263C8.37357 19.6693 9.25519 19.6681 9.79824 19.1235C9.84097 19.0807 9.88087 19.0351 9.91769 18.987C10.308 18.4048 10.2228 17.6261 9.71578 17.1421L5.87267 13.285C5.66838 13.0805 5.43349 12.909 5.17646 12.7768L4.75873 12.5888H18.4324C19.1437 12.6152 19.7678 12.1183 19.9014 11.4192C20.0245 10.6601 19.509 9.94493 18.7499 9.82179Z" fill="#222222"/>
</svg>
