<svg width="142" height="114" viewBox="0 0 142 114" fill="none" xmlns="http://www.w3.org/2000/svg">
<g clip-path="url(#clip0_97_162)">
<path d="M3.37263 0H21.2848C26.8457 0 29.8461 2.43881 29.8461 6.1594C29.8461 9.49433 27.3532 12.6364 23.3828 13.1015C26.9359 13.4531 29.6656 15.4609 29.6656 18.8752C29.6656 21.6997 27.545 27.1331 19.1304 27.1331H0L3.37263 0ZM17.7881 20.883C19.9989 20.883 21.6119 19.726 21.6119 17.9337C21.6119 16.5385 20.3373 15.6878 18.4197 15.6878H9.30574L8.6628 20.883H17.7768H17.7881ZM18.1265 11.003C20.405 11.003 21.6457 9.72119 21.6457 8.32597C21.6457 6.93075 20.405 6.23881 18.7017 6.23881H10.4788L9.90357 11.003H18.1265Z" fill="#3EDDAC"/>
<path d="M31.6057 19.2272C31.6057 14.8828 34.0985 7.18066 42.5921 7.18066C45.8407 7.18066 48.3899 8.46246 49.7886 10.7425L50.1495 7.72514H57.47L55.0675 27.1448H48.3899C48.1756 26.3735 48.1192 25.2051 48.1756 24.0481C46.2355 26.3735 43.314 27.6893 40.0429 27.6893C34.8543 27.6893 31.6057 24.4678 31.6057 19.2386V19.2272ZM48.7847 18.5239L49.0892 16.278C48.6606 14.1795 46.7205 12.7502 44.4194 12.7502C39.806 12.7502 38.5878 16.312 38.5878 18.0589C38.5878 20.5431 40.5054 22.0517 43.2915 22.0517C45.57 22.0517 47.7808 20.6565 48.7847 18.5239Z" fill="#3EDDAC"/>
<path d="M57.8987 34.0642L59.3199 27.4398C61.5082 29.1072 64.6665 29.9239 67.2157 29.9239C71.0734 29.9239 75.1679 28.6081 75.5401 25.6248L75.777 23.6511C73.8369 25.8971 70.9493 26.9066 67.7346 26.9066C62.5459 26.9066 59.2071 24.1502 59.2071 19.0798C59.2071 15.0529 61.6661 7.18066 70.1935 7.18066C73.4421 7.18066 75.9913 8.46246 77.39 10.7425L77.7509 7.72514H85.0714L82.7366 26.6344C81.8906 33.6445 74.1414 36.3669 68.9866 36.3669C64.6439 36.3669 60.0869 35.3234 57.91 34.0756L57.8987 34.0642ZM76.3861 18.5239L76.6906 16.278C76.262 14.1795 74.3219 12.7502 72.0208 12.7502C67.4075 12.7502 66.1893 16.312 66.1893 18.0589C66.1893 20.5431 68.1068 22.0517 70.8929 22.0517C73.1714 22.0517 75.3822 20.6565 76.3861 18.5239Z" fill="#3EDDAC"/>
<path d="M86.1881 23.2084C86.5265 20.4974 88.3989 18.9434 90.7113 18.9434C93.0236 18.9434 94.5125 20.4974 94.1741 23.2425C93.8357 25.9535 91.9295 27.5075 89.651 27.5075C87.3725 27.5075 85.8497 25.9535 86.1881 23.2084Z" fill="#3EDDAC"/>
<path d="M3.37252 62.989L4.21849 56.1717H0.36084L1.00378 51.0219L9.86962 43.4219H13.152L12.2158 50.829H18.7693L18.1038 56.1717H11.5729L10.9073 61.4464C10.6705 63.3407 11.6067 64.509 13.6709 64.509C14.8552 64.509 16.1862 64.1574 17.1901 63.7377L17.0999 69.3526C15.0357 70.3622 12.7008 70.7819 10.2644 70.7819C5.56078 70.7819 2.76341 68.1049 3.37252 62.989Z" fill="#222222"/>
<path d="M18.8257 62.0137C18.8257 58.1003 21.3749 50.2734 32.0004 50.2734C38.5313 50.2734 42.6597 53.6084 42.6597 59.1099C42.6597 62.9893 40.1443 70.7708 29.4511 70.7708C22.954 70.7708 18.8257 67.4358 18.8257 62.0137ZM35.6775 59.8472C35.6775 57.4084 33.8841 55.8543 31.301 55.8543C27.5336 55.8543 25.774 58.9511 25.774 61.2424C25.774 63.6812 27.6238 65.1899 30.1505 65.1899C33.2186 65.1899 35.6775 63.1027 35.6775 59.8472Z" fill="#222222"/>
<path d="M55.1013 62.989L55.9473 56.1717H52.0896L52.7325 51.0219L61.5984 43.4219H64.8808L63.9445 50.829H70.4981L69.8325 56.1717H63.3016L62.6361 61.4464C62.388 63.3407 63.3354 64.509 65.3996 64.509C66.584 64.509 67.915 64.1574 68.9189 63.7377L68.8287 69.3526C66.7645 70.3622 64.4296 70.7819 61.9932 70.7819C57.2895 70.7819 54.4922 68.1049 55.1013 62.989Z" fill="#222222"/>
<path d="M74.2655 42.0156H81.5861L80.1535 53.6765C82.0711 51.3852 84.8008 50.2622 87.7786 50.2622C92.9109 50.2622 95.7082 53.824 95.0991 58.9852L93.7005 70.2264H86.3799L87.6884 59.4956C87.9591 57.3631 86.5943 55.8885 84.406 55.8885C82.6464 55.8885 80.8867 56.8186 79.5219 58.8377L78.1006 70.2264H70.814L74.2768 42.0156H74.2655Z" fill="#222222"/>
<path d="M97.3325 62.0137C97.3325 58.1797 99.7013 50.2734 110.327 50.2734C116.124 50.2734 120.411 53.2227 120.411 58.8036C120.411 59.8131 120.23 61.2424 119.869 62.2179H103.965C104.021 64.5433 106.571 65.7116 110.033 65.7116C113.496 65.7116 116.226 64.8949 118.504 63.6585L117.895 69.0466C115.865 69.9767 112.154 70.7934 108.545 70.7934C101.382 70.7934 97.3438 67.5379 97.3438 62.0364L97.3325 62.0137ZM114.094 58.9511C114.184 56.7051 112.154 55.2645 109.785 55.2645C107.417 55.2645 105.172 56.4215 104.416 58.9511H114.105H114.094Z" fill="#222222"/>
<path d="M3.37263 86.2086H28.8196L27.8834 93.491H10.3322L9.66669 98.8337H24.4544L23.755 104.573H8.92223L7.86194 113.33H0L3.37263 86.1973V86.2086Z" fill="#222222"/>
<path d="M28.7519 105.232L30.1506 93.9111H37.4711L36.1401 104.642C35.892 106.774 37.2343 108.249 39.4225 108.249C41.216 108.249 42.9756 107.285 44.3405 105.3L45.7617 93.9111H53.0484L50.6458 113.331H43.7201C43.596 112.514 43.6298 111.505 43.7201 110.427C41.8025 112.718 39.0503 113.989 36.0386 113.989C30.9063 113.989 28.109 110.382 28.7519 105.232Z" fill="#222222"/>
<path d="M58.113 106.094L58.959 99.2762H55.1013L55.7443 94.1264L64.6101 86.5264H67.8925L66.9563 93.9335H73.5098L72.8443 99.2762H66.3133L65.6478 104.551C65.411 106.445 66.3472 107.614 68.4114 107.614C69.5957 107.614 70.9267 107.262 71.9306 106.842L71.8404 112.457C69.7762 113.467 67.4413 113.886 65.0049 113.886C60.3013 113.886 57.5039 111.209 58.113 106.094Z" fill="#222222"/>
<path d="M74.6264 105.232L76.0251 93.9111H83.3456L82.0146 104.642C81.7665 106.774 83.1088 108.249 85.297 108.249C87.0905 108.249 88.8501 107.285 90.215 105.3L91.6362 93.9111H98.9229L96.5203 113.331H89.5946C89.4705 112.514 89.5043 111.505 89.5946 110.427C87.677 112.718 84.9135 113.989 81.9131 113.989C76.7809 113.989 73.9835 110.382 74.6264 105.232Z" fill="#222222"/>
<path d="M102.735 93.9224H109.661C109.808 95.0114 109.695 96.4746 109.481 98.4938C111.116 95.5105 113.462 93.3779 116.316 93.3779C117.286 93.3779 118.29 93.5708 118.956 94.0018L118.042 101.205C117.433 100.74 116.643 100.354 115.132 100.354C112.368 100.354 110.056 102.407 108.635 105.164L107.631 113.342H100.31L102.735 93.9224Z" fill="#222222"/>
<path d="M118.922 105.118C118.922 101.284 121.291 93.3779 131.916 93.3779C137.714 93.3779 142 96.3272 142 101.908C142 102.918 141.82 104.347 141.459 105.322H125.554C125.611 107.648 128.16 108.816 131.623 108.816C135.086 108.816 137.815 107.999 140.094 106.763L139.485 112.151C137.454 113.081 133.743 113.898 130.134 113.898C122.971 113.898 118.933 110.642 118.933 105.141L118.922 105.118ZM135.683 102.056C135.774 99.8096 133.743 98.369 131.375 98.369C129.006 98.369 126.761 99.526 126.006 102.056H135.695H135.683Z" fill="#222222"/>
</g>
<defs>
<clipPath id="clip0_97_162">
<rect width="142" height="114" fill="white"/>
</clipPath>
</defs>
</svg>
