<svg width="11" height="11" viewBox="0 0 11 11" fill="none" xmlns="http://www.w3.org/2000/svg">
<g clip-path="url(#clip0_1553_1066)">
<path d="M9.06974 3.69286C9.0584 3.50402 8.90177 3.35681 8.71259 3.35714H7.28402V2.28571C7.28402 1.29949 6.48453 0.5 5.49831 0.5C4.51208 0.5 3.71259 1.29949 3.71259 2.28571V3.35714H2.28402C2.09485 3.35681 1.93822 3.50402 1.92688 3.69286L1.61259 9.36786C1.57906 9.95864 2.03081 10.4648 2.62159 10.4983C2.64237 10.4995 2.66319 10.5 2.68402 10.5H8.31616C8.90791 10.501 9.38835 10.022 9.38931 9.43029C9.38936 9.40946 9.38878 9.38864 9.38759 9.36786L9.06974 3.69286ZM4.42688 2.28571C4.42688 1.69397 4.90657 1.21429 5.49831 1.21429C6.09005 1.21429 6.56974 1.69397 6.56974 2.28571V3.35714H4.42688V2.28571Z" fill="#8B78FF"/>
</g>
<defs>
<clipPath id="clip0_1553_1066">
<rect width="10" height="10" fill="white" transform="translate(0.5 0.5)"/>
</clipPath>
</defs>
</svg>
