<svg width="21" height="21" viewBox="0 0 21 21" fill="none" xmlns="http://www.w3.org/2000/svg">
<circle cx="10.5" cy="10.5" r="10" fill="white" stroke="#B5B5B5"/>
<path d="M14.0936 12.8521L11.8038 10.5624L14.0936 8.27262C14.4364 7.92981 14.4364 7.374 14.0936 7.03119C13.7508 6.68837 13.1949 6.68837 12.8521 7.03119L10.5624 9.32094L8.27262 7.03119C7.92981 6.68837 7.374 6.68837 7.03119 7.03119C6.68837 7.374 6.68837 7.92981 7.03119 8.27262L9.32094 10.5624L7.03119 12.8521C6.68837 13.1949 6.68837 13.7508 7.03119 14.0936C7.374 14.4364 7.92981 14.4364 8.27262 14.0936L10.5624 11.8038L12.8521 14.0936C13.1949 14.4364 13.7508 14.4364 14.0936 14.0936C14.4364 13.7508 14.4364 13.1949 14.0936 12.8521Z" fill="#545454"/>
</svg>
