<svg width="30" height="30" viewBox="0 0 30 30" fill="none" xmlns="http://www.w3.org/2000/svg">
<path d="M26.413 7.17391H23.2826L21.5543 4.56522C20.9022 3.58696 19.7609 3 18.587 3H11.413C10.2391 3 9.09783 3.58696 8.44565 4.56522L6.71739 7.17391H3.58696C1.59783 7.17391 0 8.77174 0 10.7609V23.413C0 25.4022 1.59783 27 3.58696 27H26.413C28.4022 27 30 25.4022 30 23.413V10.7609C30 8.77174 28.4022 7.17391 26.413 7.17391ZM15 24.0652C10.5326 24.0652 6.91304 20.4457 6.91304 15.9783C6.91304 11.5109 10.5326 7.92391 15 7.92391C19.4674 7.92391 23.087 11.5435 23.087 16.0109C23.087 20.4457 19.4674 24.0652 15 24.0652ZM25.9565 12.2283C25.9239 12.2283 25.8913 12.2283 25.8261 12.2283H24.5217C23.9348 12.1957 23.4783 11.7065 23.5109 11.1196C23.5435 10.5652 23.9674 10.1413 24.5217 10.1087H25.8261C26.413 10.0761 26.9022 10.5326 26.9348 11.1196C26.9674 11.7065 26.5435 12.1957 25.9565 12.2283Z" fill="#979797"/>
<path d="M15 11.5117C12.5217 11.5117 10.5 13.5335 10.5 16.0117C10.5 18.49 12.5217 20.4791 15 20.4791C17.4783 20.4791 19.5 18.4574 19.5 15.9791C19.5 13.5008 17.4783 11.5117 15 11.5117Z" fill="#979797"/>
</svg>
