<svg width="12" height="12" viewBox="0 0 12 12" fill="none" xmlns="http://www.w3.org/2000/svg">
<path d="M2.10004 9.7762L1.60994 9.67716C1.57677 9.84132 1.62799 10.0112 1.74638 10.1297C1.86477 10.2481 2.03462 10.2994 2.1988 10.2664L2.10004 9.7762ZM2.54069 7.59578L2.0506 7.49674H2.0506L2.54069 7.59578ZM2.70442 7.29049L2.35077 6.93703L2.70442 7.29049ZM4.58889 9.17231L4.94255 9.52577L4.58889 9.17231ZM4.28303 9.33634L4.18427 8.8462L4.28303 9.33634ZM9.47538 3.43414L9.82873 3.08039L9.47538 3.43414ZM9.47573 4.2828L9.12208 3.92934L9.47573 4.2828ZM8.44017 2.40011L8.08682 2.75386L8.44017 2.40011ZM7.59176 2.40046L7.94542 2.75392L7.59176 2.40046ZM6.90001 9.2762C6.62386 9.2762 6.40001 9.50006 6.40001 9.7762C6.40001 10.0523 6.62386 10.2762 6.90001 10.2762V9.2762ZM9.90001 10.2762C10.1761 10.2762 10.4 10.0523 10.4 9.7762C10.4 9.50006 10.1761 9.2762 9.90001 9.2762V10.2762ZM8.08682 2.75386L9.12202 3.7879L9.82873 3.08039L8.79352 2.04635L8.08682 2.75386ZM9.12208 3.92934L4.23524 8.81886L4.94255 9.52577L9.82938 4.63625L9.12208 3.92934ZM4.18427 8.8462L2.00127 9.28606L2.1988 10.2664L4.38179 9.82649L4.18427 8.8462ZM2.59013 9.87525L3.03078 7.69483L2.0506 7.49674L1.60994 9.67716L2.59013 9.87525ZM3.05807 7.64394L7.94542 2.75392L7.23811 2.04701L2.35077 6.93703L3.05807 7.64394ZM3.03078 7.69483C3.03468 7.67555 3.04417 7.65785 3.05807 7.64394L2.35077 6.93703C2.19785 7.09003 2.09344 7.28471 2.0506 7.49674L3.03078 7.69483ZM4.23524 8.81886C4.22132 8.83279 4.20358 8.8423 4.18427 8.8462L4.38179 9.82649C4.59425 9.78368 4.78933 9.67906 4.94255 9.52577L4.23524 8.81886ZM9.12202 3.7879C9.16111 3.82694 9.16113 3.89027 9.12208 3.92934L9.82938 4.63625C10.2589 4.20647 10.2586 3.50981 9.82873 3.08039L9.12202 3.7879ZM8.79352 2.04635C8.36379 1.61711 7.66748 1.6174 7.23811 2.04701L7.94542 2.75392C7.98445 2.71486 8.04775 2.71484 8.08682 2.75386L8.79352 2.04635ZM6.90001 10.2762H9.90001V9.2762H6.90001V10.2762Z" fill="#979797"/>
</svg>
