<svg width="30" height="26" viewBox="0 0 30 26" fill="none" xmlns="http://www.w3.org/2000/svg">
<path d="M23.3841 0.5H6.63484C4.87648 0.5 3.19014 1.08191 1.9468 2.11772C0.703449 3.15354 0.0049437 4.5584 0.0049437 6.02326V19.9767C-0.0016479 19.9957 -0.0016479 20.0159 0.0049437 20.0349C0.0233261 21.4896 0.729938 22.8796 1.9713 23.9029C3.21266 24.9262 4.88851 25.5001 6.63484 25.5H23.3841C25.1232 25.4971 26.7913 24.925 28.0289 23.9071C29.2665 22.8891 29.9744 21.5068 30 20.0581V6.02326C30 4.56041 29.3034 3.15731 28.0631 2.12183C26.8228 1.08635 25.14 0.50308 23.3841 0.5ZM27.9203 17.6512L22.086 12.093C21.7153 11.7643 21.2677 11.5022 20.7708 11.3231C20.2739 11.144 19.7382 11.0516 19.1968 11.0516C18.6553 11.0516 18.1196 11.144 17.6227 11.3231C17.1258 11.5022 16.6782 11.7643 16.3075 12.093L12.3017 15.907L10.9896 14.5814C10.6281 14.2201 10.1756 13.9294 9.66431 13.7299C9.15296 13.5304 8.59524 13.427 8.03061 13.427C7.46598 13.427 6.90826 13.5304 6.39691 13.7299C5.88557 13.9294 5.43312 14.2201 5.07158 14.5814L2.0986 17.5698V6.02326C2.10228 5.02193 2.58138 4.06249 3.4313 3.35444C4.28121 2.64639 5.43289 2.24725 6.63484 2.24419H23.3841C24.586 2.24725 25.7377 2.64639 26.5876 3.35444C27.4375 4.06249 27.9166 5.02193 27.9203 6.02326V17.6512Z" fill="#222222"/>
<path d="M7.69213 9.51584C8.97689 9.51584 10.0184 8.47433 10.0184 7.18956C10.0184 5.90479 8.97689 4.86328 7.69213 4.86328C6.40736 4.86328 5.36584 5.90479 5.36584 7.18956C5.36584 8.47433 6.40736 9.51584 7.69213 9.51584Z" fill="#222222"/>
</svg>
