<svg width="24" height="24" viewBox="0 0 24 24" fill="none" xmlns="http://www.w3.org/2000/svg">
<path d="M2.29126 10.8413C2.42917 6.29276 4.74312 1.23828 11.5499 1.23828C18.3443 1.23828 20.6622 6.27428 20.8078 10.8164" stroke="#222222" stroke-width="2" stroke-linecap="round"/>
<path d="M1.6499 13.6127C1.6499 9.84129 4.16419 8.89844 5.42133 8.89844C7.68419 8.89844 8.2499 10.7842 8.2499 11.727V15.4984C8.2499 17.7613 6.36419 18.327 5.42133 18.327C4.16419 18.327 1.6499 17.3842 1.6499 13.6127Z" stroke="#222222" stroke-width="2"/>
<path d="M21.45 13.6127C21.45 9.84129 18.9357 8.89844 17.6785 8.89844C15.4157 8.89844 14.85 10.7842 14.85 11.727V15.4984C14.85 17.7613 16.7357 18.327 17.6785 18.327C18.9357 18.327 21.45 17.3842 21.45 13.6127Z" stroke="#222222" stroke-width="2"/>
<path d="M20.9085 16.2676C20.9085 16.2676 21.0374 19.2324 19.5163 20.5215C17.9952 21.8105 14.1538 21.7848 14.1538 21.7848" stroke="#222222" stroke-width="2" stroke-linecap="round"/>
</svg>
