<?xml version="1.0" encoding="utf-8"?>
<!-- Generator: Adobe Illustrator 28.3.0, SVG Export Plug-In . SVG Version: 6.00 Build 0)  -->
<svg version="1.1" id="레이어_1" xmlns="http://www.w3.org/2000/svg" xmlns:xlink="http://www.w3.org/1999/xlink" x="0px"
	 y="0px" viewBox="0 0 24 25" style="enable-background:new 0 0 24 25;" xml:space="preserve">
<style type="text/css">
	.st0{clip-path:url(#SVGID_00000010281810906530502410000015710426629204995998_);}
	.st1{fill:#222222;}
</style>
<g>
	<defs>
		<rect id="SVGID_1_" y="0.5" width="24" height="24"/>
	</defs>
	<clipPath id="SVGID_00000143618911821826757340000008902542290217096639_">
		<use xlink:href="#SVGID_1_"  style="overflow:visible;"/>
	</clipPath>
	<g style="clip-path:url(#SVGID_00000143618911821826757340000008902542290217096639_);">
		<g>
			<path class="st1" d="M17.4,5.1c1.4,0,2.7,0.5,3.7,1.5c1.1,1.1,1.8,2.6,1.7,4.2c0,1.3-0.6,2.8-1.7,4.3c-0.9,1.3-2.2,2.6-3.8,3.9
				c-2.4,2-4.8,3.4-5.4,3.8c-0.6-0.3-3-1.8-5.4-3.8c-1.6-1.3-2.9-2.7-3.8-3.9c-1.1-1.5-1.7-3-1.7-4.3c0-1.5,0.6-3,1.6-4.1
				c1-1.1,2.4-1.7,3.8-1.7c1.8,0,3.5,1,4.6,2.6L12,9.1l0.9-1.4C13.9,6.1,15.6,5.1,17.4,5.1 M17.4,4.1c-2.2,0-4.2,1.2-5.4,3.1
				c-1.2-1.9-3.2-3.1-5.4-3.1c-1.7,0-3.4,0.7-4.6,2c-1.2,1.3-1.9,3-1.9,4.8c0,1.5,0.6,3.2,1.9,4.9c1,1.3,2.3,2.7,4,4.1
				c2.8,2.3,5.6,3.9,5.7,4c0.1,0.1,0.2,0.1,0.3,0.1c0.1,0,0.2,0,0.3-0.1c0.1-0.1,2.9-1.6,5.7-4c1.7-1.4,3-2.8,3.9-4.1
				c1.2-1.7,1.9-3.4,1.9-4.9c0-1.9-0.7-3.7-2-5C20.6,4.7,19,4.1,17.4,4.1L17.4,4.1z"/>
		</g>
	</g>
</g>
</svg>
