<svg width="24" height="24" viewBox="0 0 24 24" fill="none" xmlns="http://www.w3.org/2000/svg">
<g clip-path="url(#clip0_537_170)">
<path d="M11.8984 21.8516L11.8986 21.8517C11.9299 21.8698 11.9647 21.8789 12 21.8789C12.0353 21.8789 12.0705 21.8697 12.1022 21.8514C12.2082 21.7897 14.964 20.1784 17.7661 17.753C19.4245 16.3175 20.7387 14.9049 21.6809 13.5568L22.0908 13.8432L21.6809 13.5568C22.8999 11.8128 23.4905 10.1812 23.4999 8.70105C23.5115 6.86901 22.8039 5.10695 21.5711 3.86648L21.9258 3.51404L21.5711 3.86647C20.4485 2.73672 18.9955 2.12207 17.4793 2.12207C15.4269 2.12207 13.53 3.27219 12.4301 5.12703L12 5.85229L11.57 5.12703C10.4701 3.27215 8.57322 2.12207 6.5208 2.12207C4.91652 2.12207 3.40605 2.80224 2.26527 4.05554C1.14195 5.2897 0.511279 6.93653 0.500111 8.69846L11.8984 21.8516ZM11.8984 21.8516C11.7915 21.79 9.01592 20.1787 6.20376 17.7533L5.8772 18.1319M11.8984 21.8516L5.8772 18.1319M5.8772 18.1319L6.20376 17.7532C4.53894 16.3174 3.22344 14.9046 2.28458 13.5565L2.28457 13.5565M5.8772 18.1319L2.28457 13.5565M2.28457 13.5565C1.06906 11.8112 0.490791 10.1791 0.500111 8.69847L2.28457 13.5565Z" stroke="#222222"/>
</g>
<defs>
<clipPath id="clip0_537_170">
<rect width="24" height="24" fill="white"/>
</clipPath>
</defs>
</svg>
