<svg width="11" height="11" viewBox="0 0 11 11" fill="none" xmlns="http://www.w3.org/2000/svg">
<g clip-path="url(#clip0_687_231)">
<path d="M9.06967 3.69286C9.05833 3.50402 8.9017 3.35681 8.71252 3.35714H7.28395V2.28571C7.28395 1.29949 6.48447 0.5 5.49824 0.5C4.51201 0.5 3.71252 1.29949 3.71252 2.28571V3.35714H2.28395C2.09478 3.35681 1.93815 3.50402 1.92681 3.69286L1.61252 9.36786C1.579 9.95864 2.03074 10.4648 2.62152 10.4983C2.6423 10.4995 2.66313 10.5 2.68395 10.5H8.3161C8.90784 10.501 9.38828 10.022 9.38924 9.43029C9.38929 9.40946 9.38871 9.38864 9.38752 9.36786L9.06967 3.69286ZM4.42681 2.28571C4.42681 1.69397 4.9065 1.21429 5.49824 1.21429C6.08998 1.21429 6.56967 1.69397 6.56967 2.28571V3.35714H4.42681V2.28571Z" fill="#8B78FF"/>
</g>
<defs>
<clipPath id="clip0_687_231">
<rect width="10" height="10" fill="white" transform="translate(0.5 0.5)"/>
</clipPath>
</defs>
</svg>
