<svg width="12" height="12" viewBox="0 0 12 12" fill="none" xmlns="http://www.w3.org/2000/svg">
<path d="M8.75 9.44118L8.25039 9.42152L8.25 9.43134V9.44118H8.75ZM8.9783 3.63969L8.47869 3.62003V3.62003L8.9783 3.63969ZM3.25 9.44118H3.75V9.43134L3.74961 9.42152L3.25 9.44118ZM3.0217 3.63969L2.52209 3.65935L3.0217 3.63969ZM2 2.58824C1.72386 2.58824 1.5 2.81209 1.5 3.08824C1.5 3.36438 1.72386 3.58824 2 3.58824V2.58824ZM10 3.58824C10.2761 3.58824 10.5 3.36438 10.5 3.08824C10.5 2.81209 10.2761 2.58824 10 2.58824V3.58824ZM4.5 1C4.22386 1 4 1.22386 4 1.5C4 1.77614 4.22386 2 4.5 2V1ZM7.5 2C7.77614 2 8 1.77614 8 1.5C8 1.22386 7.77614 1 7.5 1V2ZM4.5 8.38235C4.5 8.6585 4.72386 8.88235 5 8.88235C5.27614 8.88235 5.5 8.6585 5.5 8.38235H4.5ZM5.5 5.20588C5.5 4.92974 5.27614 4.70588 5 4.70588C4.72386 4.70588 4.5 4.92974 4.5 5.20588H5.5ZM6.5 8.38235C6.5 8.6585 6.72386 8.88235 7 8.88235C7.27614 8.88235 7.5 8.6585 7.5 8.38235H6.5ZM7.5 5.20588C7.5 4.92974 7.27614 4.70588 7 4.70588C6.72386 4.70588 6.5 4.92974 6.5 5.20588H7.5ZM7.75 10H4.25V11H7.75V10ZM8.25 9.44118C8.25 9.77712 7.9996 10 7.75 10V11C8.60497 11 9.25 10.2748 9.25 9.44118H8.25ZM8.47869 3.62003L8.25039 9.42152L9.24961 9.46084L9.47791 3.65935L8.47869 3.62003ZM3.74961 9.42152L3.52131 3.62003L2.52209 3.65935L2.75039 9.46084L3.74961 9.42152ZM4.25 10C4.0004 10 3.75 9.77712 3.75 9.44118H2.75C2.75 10.2748 3.39503 11 4.25 11V10ZM8.47873 2.58824H3.52127V3.58824H8.47873V2.58824ZM3.52131 3.62003C3.52061 3.60207 3.52691 3.59137 3.53099 3.58686C3.53294 3.5847 3.53342 3.58503 3.53118 3.58606C3.52843 3.58733 3.52459 3.58824 3.52127 3.58824V2.58824C2.92498 2.58824 2.50023 3.10385 2.52209 3.65935L3.52131 3.62003ZM9.47791 3.65935C9.49977 3.10385 9.07502 2.58824 8.47873 2.58824V3.58824C8.47541 3.58824 8.47157 3.58733 8.46882 3.58606C8.46658 3.58503 8.46706 3.5847 8.46901 3.58686C8.47309 3.59137 8.47939 3.60207 8.47869 3.62003L9.47791 3.65935ZM2 3.58824H10V2.58824H2V3.58824ZM4.5 2H7.5V1H4.5V2ZM5.5 8.38235V5.20588H4.5V8.38235H5.5ZM7.5 8.38235V5.20588H6.5V8.38235H7.5Z" fill="#979797"/>
</svg>
