<svg width="14" height="13" viewBox="0 0 14 13" fill="none" xmlns="http://www.w3.org/2000/svg">
<path d="M13.6239 5.65437C13.6236 5.65408 13.6233 5.65378 13.623 5.65348L7.9115 0.350708C7.66805 0.124573 7.34438 0 7.00009 0C6.6558 0 6.33213 0.124474 6.08857 0.350609L0.380089 5.6507C0.378166 5.65249 0.376243 5.65437 0.37432 5.65616C-0.125609 6.12301 -0.124754 6.88046 0.376777 7.34612C0.605911 7.55897 0.908539 7.68225 1.2321 7.69514C1.24524 7.69633 1.25849 7.69693 1.27184 7.69693H1.49948V11.5994C1.49948 12.3717 2.1762 13 3.00813 13H5.24264C5.46911 13 5.65284 12.8295 5.65284 12.6191V9.55957C5.65284 9.20718 5.96156 8.92054 6.3411 8.92054H7.65907C8.03861 8.92054 8.34733 9.20718 8.34733 9.55957V12.6191C8.34733 12.8295 8.53096 13 8.75753 13H10.992C11.824 13 12.5007 12.3717 12.5007 11.5994V7.69693H12.7118C13.056 7.69693 13.3796 7.57246 13.6233 7.34632C14.1254 6.87987 14.1256 6.12112 13.6239 5.65437Z" fill="#222222"/>
</svg>
