<?xml version="1.0" encoding="UTF-8"?>
<svg id="_레이어_2" data-name="레이어 2" xmlns="http://www.w3.org/2000/svg" viewBox="0 0 92.84 115.85">
  <g id="_레이어_1-2" data-name="레이어 1">
    <g>
      <rect x="7.91" y="25.64" width="84.94" height="82.95" fill="#2bbf8e" stroke-width="0"/>
      <rect y="32.9" width="84.94" height="82.95" fill="#3eddac" stroke-width="0"/>
      <path d="M14.74,38.36c0-18.7,12.41-33.86,27.71-33.86,15.3,0,27.71,15.16,27.71,33.86" fill="none" stroke="#222" stroke-linecap="round" stroke-miterlimit="10" stroke-width="9"/>
      <path d="M27.5,90.54c0-6.44,3.55-9.9,7.68-9.9s7.28,5.54,7.28,11.98" fill="#ff726a" stroke="#222" stroke-miterlimit="10" stroke-width="5"/>
      <g id="_18-tasty_delicious" data-name="18-tasty+delicious">
        <path d="M64.1,84.05c-5.11,6.22-12.96,10.18-21.63,10.18s-16.52-3.97-21.63-10.18" fill="none" stroke="#222" stroke-linecap="round" stroke-linejoin="round" stroke-width="5"/>
      </g>
      <ellipse cx="32.26" cy="67.03" rx="5.32" ry="7.34" fill="#222" stroke-width="0"/>
      <path d="M52.92,61.05l-6.97,12.08s0,.08.05.08h13.94s.07-.05.05-.08l-6.97-12.08s-.07-.04-.09,0Z" fill="#222" stroke-width="0"/>
    </g>
  </g>
</svg>