<svg width="22" height="28" viewBox="0 0 22 28" fill="none" xmlns="http://www.w3.org/2000/svg">
<path fill-rule="evenodd" clip-rule="evenodd" d="M21.9375 2.75V26.5C21.9375 26.8475 21.745 27.1663 21.4375 27.3288C21.13 27.4913 20.7588 27.47 20.4713 27.2738L17.3525 25.145L14.4038 27.2612C14.05 27.5162 13.5675 27.4925 13.24 27.205L11 25.2463L8.76 27.205C8.4325 27.4925 7.95 27.5162 7.59625 27.2612L4.6475 25.145L1.52875 27.2738C1.24125 27.47 0.87 27.4913 0.5625 27.3288C0.255 27.1663 0.0625 26.8475 0.0625 26.5V2.75C0.0625 1.5425 1.04125 0.5625 2.25 0.5625H19.75C20.9588 0.5625 21.9375 1.5425 21.9375 2.75ZM6 12.4375H16C16.5175 12.4375 16.9375 12.0175 16.9375 11.5C16.9375 10.9825 16.5175 10.5625 16 10.5625H6C5.4825 10.5625 5.0625 10.9825 5.0625 11.5C5.0625 12.0175 5.4825 12.4375 6 12.4375ZM6 7.4375H16C16.5175 7.4375 16.9375 7.0175 16.9375 6.5C16.9375 5.9825 16.5175 5.5625 16 5.5625H6C5.4825 5.5625 5.0625 5.9825 5.0625 6.5C5.0625 7.0175 5.4825 7.4375 6 7.4375ZM6 17.4375H11C11.5175 17.4375 11.9375 17.0175 11.9375 16.5C11.9375 15.9825 11.5175 15.5625 11 15.5625H6C5.4825 15.5625 5.0625 15.9825 5.0625 16.5C5.0625 17.0175 5.4825 17.4375 6 17.4375Z" fill="#8B78FF"/>
</svg>
