<svg width="19" height="19" viewBox="0 0 19 19" fill="none" xmlns="http://www.w3.org/2000/svg">
<path d="M8.55 15.2H10.45V13.3H8.55V15.2ZM9.5 0C4.256 0 0 4.256 0 9.5C0 14.744 4.256 19 9.5 19C14.744 19 19 14.744 19 9.5C19 4.256 14.744 0 9.5 0ZM9.5 17.1C5.3105 17.1 1.9 13.6895 1.9 9.5C1.9 5.3105 5.3105 1.9 9.5 1.9C13.6895 1.9 17.1 5.3105 17.1 9.5C17.1 13.6895 13.6895 17.1 9.5 17.1ZM9.5 3.8C7.4005 3.8 5.7 5.5005 5.7 7.6H7.6C7.6 6.555 8.455 5.7 9.5 5.7C10.545 5.7 11.4 6.555 11.4 7.6C11.4 9.5 8.55 9.2625 8.55 12.35H10.45C10.45 10.2125 13.3 9.975 13.3 7.6C13.3 5.5005 11.5995 3.8 9.5 3.8Z" fill="#545454"/>
</svg>
