<svg width="23" height="23" viewBox="0 0 23 23" fill="none" xmlns="http://www.w3.org/2000/svg">
<mask id="mask0_1146_506" style="mask-type:luminance" maskUnits="userSpaceOnUse" x="0" y="0" width="23" height="23">
<path d="M0 0H23V23H0V0Z" fill="white"/>
</mask>
<g mask="url(#mask0_1146_506)">
<path d="M11.5 0.900391C5.64493 0.900391 0.898438 5.64688 0.898438 11.502C0.898438 13.5632 1.48732 15.4866 2.50511 17.1144L0.898438 22.1035L5.8876 20.4968C7.51534 21.5146 9.43876 22.1035 11.5 22.1035C17.3551 22.1035 22.1016 17.357 22.1016 11.502C22.1016 5.64688 17.3551 0.900391 11.5 0.900391Z" stroke="black" stroke-width="1.8" stroke-miterlimit="10" stroke-linecap="round" stroke-linejoin="round"/>
<path d="M12.623 11.502C12.623 12.1222 12.1202 12.625 11.5 12.625C10.8798 12.625 10.377 12.1222 10.377 11.502C10.377 10.8817 10.8798 10.3789 11.5 10.3789C12.1202 10.3789 12.623 10.8817 12.623 11.502Z" fill="black"/>
<path d="M17.1152 11.502C17.1152 12.1222 16.6124 12.625 15.9922 12.625C15.372 12.625 14.8691 12.1222 14.8691 11.502C14.8691 10.8817 15.372 10.3789 15.9922 10.3789C16.6124 10.3789 17.1152 10.8817 17.1152 11.502Z" fill="black"/>
<path d="M8.13086 11.502C8.13086 12.1222 7.62805 12.625 7.00781 12.625C6.38758 12.625 5.88477 12.1222 5.88477 11.502C5.88477 10.8817 6.38758 10.3789 7.00781 10.3789C7.62805 10.3789 8.13086 10.8817 8.13086 11.502Z" fill="black"/>
</g>
</svg>
